Coordinates
version=1
nRows=11
nColumns=46
inDegrees=yes

Units are S.I. units (second, meters, Newtons, ...)
Angles are in degrees.

endheader
time	pelvis_tilt	pelvis_list	pelvis_rotation	pelvis_tx	pelvis_ty	pelvis_tz	bb_angle	bb_tx	bb_ty	bb_tz	hip_flexion_r	hip_adduction_r	hip_rotation_r	knee_angle_r	knee_angle_r_beta	ankle_angle_r	subtalar_angle_r	mtp_angle_r	crank_angle_r	hip_flexion_l	hip_adduction_l	hip_rotation_l	knee_angle_l	knee_angle_l_beta	ankle_angle_l	subtalar_angle_l	mtp_angle_l	crank_angle_l	lumbar_extension	lumbar_bending	lumbar_rotation	arm_flex_r	arm_add_r	arm_rot_r	elbow_flex_r	pro_sup_r	wrist_flex_r	wrist_dev_r	arm_flex_l	arm_add_l	arm_rot_l	elbow_flex_l	pro_sup_l	wrist_flex_l	wrist_dev_l
      5.00500000	    -12.15413206	     -3.97879193	      6.48256383	      0.15510333	      1.09140789	     -0.24943462	      0.00000000	      0.50000000	      0.00000000	      0.25000000	     85.22383601	     -3.56059815	      1.45463071	    119.71925945	      2.08949526	    -12.63534428	    -20.16819678	      0.00000000	      0.00000000	     42.11826723	     -3.29757070	      5.28064733	     36.27691341	      0.63315158	     -7.68463878	     -8.90117486	      0.00000000	      0.00000000	    -70.09779673	      4.53111282	      3.14521366	     75.99004703	    -18.97429434	     19.18602938	     72.06296828	     49.25888166	      0.00000000	      0.00000000	     83.16060989	    -12.33549829	     29.85943985	     68.34137496	     45.61587967	      0.00000000	      0.00000000
      5.01000000	    -12.22699116	     -3.92217129	      6.13558167	      0.15517689	      1.09191123	     -0.25016702	      0.00000000	      0.50000000	      0.00000000	      0.25000000	     86.39110788	     -3.68232474	      1.47953272	    120.12034114	      2.09649545	    -11.77213819	    -20.47772583	      0.00000000	      0.00000000	     41.28370295	     -3.63036476	      4.59121710	     35.88576751	      0.62632480	     -7.96515542	     -8.45108836	      0.00000000	      0.00000000	    -70.02995113	      4.60779614	      3.20074281	     76.22751746	    -18.66213532	     19.42366530	     72.00936346	     49.30826178	      0.00000000	      0.00000000	     82.91287129	    -12.60609363	     29.68730627	     68.31666380	     45.62925402	      0.00000000	      0.00000000
      5.01500000	    -12.25505747	     -3.91207979	      5.96484103	      0.15513053	      1.09249405	     -0.25120797	      0.00000000	      0.50000000	      0.00000000	      0.25000000	     87.45370245	     -3.87025224	      1.47849028	    120.37922411	      2.10101381	    -11.08554538	    -20.79492297	      0.00000000	      0.00000000	     40.53879585	     -3.84371060	      4.15268623	     35.69991758	      0.62308110	     -8.14664633	     -8.18747111	      0.00000000	      0.00000000	    -70.05373505	      4.89601336	      3.44437553	     76.49525492	    -18.49812781	     19.49622278	     72.03803641	     49.32514764	      0.00000000	      0.00000000	     82.78583801	    -12.74237626	     29.61723528	     68.25398978	     45.62149151	      0.00000000	      0.00000000
      5.02000000	    -12.24588094	     -3.85496655	      5.60560543	      0.15507182	      1.09329981	     -0.25184937	      0.00000000	      0.50000000	      0.00000000	      0.25000000	     88.39626858	     -3.84933625	      1.60829532	    120.45301298	      2.10230167	    -10.20113817	    -20.47174852	      0.00000000	      0.00000000	     39.80619400	     -4.18414423	      3.49208966	     35.66684245	      0.62250383	     -8.23584502	     -7.59900840	      0.00000000	      0.00000000	    -70.11236163	      5.05885444	      3.17543974	     77.29714461	    -17.65497121	     20.39281162	     71.00409029	     49.39361781	      0.00000000	      0.00000000	     82.28304848	    -13.46633083	     28.79140898	     68.77487629	     45.78084566	      0.00000000	      0.00000000
      5.02500000	    -12.25346317	     -3.81219994	      5.33930728	      0.15489848	      1.09417143	     -0.25261118	      0.00000000	      0.50000000	      0.00000000	      0.25000000	     89.27502160	     -3.94171774	      1.69690011	    120.31328294	      2.09986292	     -9.64019145	    -20.39748429	      0.00000000	      0.00000000	     39.22391712	     -4.44131655	      2.97405111	     35.83192644	      0.62538509	     -8.36416489	     -7.26831279	      0.00000000	      0.00000000	    -70.21538700	      5.22928377	      3.31869355	     77.62346595	    -17.38357512	     20.56374194	     71.03633731	     49.44564560	      0.00000000	      0.00000000	     82.21420290	    -13.72039321	     28.62851592	     68.68801417	     45.78503208	      0.00000000	      0.00000000
      5.03000000	    -12.28361085	     -3.73946612	      5.12596471	      0.15457759	      1.09515860	     -0.25343111	      0.00000000	      0.50000000	      0.00000000	      0.25000000	     90.05450196	     -4.07605582	      1.79852513	    119.97111015	      2.09389088	     -9.21190002	    -20.42356658	      0.00000000	      0.00000000	     38.78231588	     -4.57213338	      2.75053303	     36.22821475	      0.63230163	     -8.65555476	     -7.08845565	      0.00000000	      0.00000000	    -70.32976022	      5.41445306	      3.49083625	     77.99256830	    -17.23457767	     20.60776641	     71.09442865	     49.46368538	      0.00000000	      0.00000000	     82.17936494	    -13.86586083	     28.54102132	     68.62110531	     45.77581735	      0.00000000	      0.00000000
      5.03500000	    -12.25804758	     -3.76005026	      4.71093306	      0.15441327	      1.09627717	     -0.25389194	      0.00000000	      0.50000000	      0.00000000	      0.25000000	     90.62952308	     -3.93090950	      1.82136164	    119.42980492	      2.08444332	     -8.68140373	    -20.17921024	      0.00000000	      0.00000000	     38.40031717	     -4.94869654	      2.22098407	     36.83842921	      0.64295188	     -8.78948287	     -7.09353023	      0.00000000	      0.00000000	    -70.51843165	      5.48960332	      3.76356944	     78.40034787	    -16.95367208	     20.75790889	     71.15605161	     49.49352361	      0.00000000	      0.00000000	     82.12849160	    -14.14967093	     28.35192768	     68.52674223	     45.75567905	      0.00000000	      0.00000000
      5.04000000	    -12.25639404	     -3.62440787	      4.49232985	      0.15422412	      1.09763130	     -0.25476555	      0.00000000	      0.50000000	      0.00000000	      0.25000000	     91.10205955	     -4.10193289	      1.98209381	    118.70166011	      2.07173480	     -8.44586168	    -20.15882571	      0.00000000	      0.00000000	     37.97084334	     -4.91412657	      2.16993971	     37.28410885	      0.65073046	     -8.85018653	     -7.09265956	      0.00000000	      0.00000000	    -70.65941046	      5.54868348	      3.89014813	     78.44644951	    -16.88462337	     20.79950310	     71.14871710	     49.49739376	      0.00000000	      0.00000000	     82.11247280	    -14.21614069	     28.31353735	     68.51021104	     45.75167345	      0.00000000	      0.00000000
      5.04500000	    -12.25829075	     -3.87901157	      3.94793057	      0.15407843	      1.09852827	     -0.25494541	      0.00000000	      0.50000000	      0.00000000	      0.25000000	     91.37306404	     -3.69395415	      1.86884968	    117.90646234	      2.05785598	     -6.88830426	    -18.77942517	      0.00000000	      0.00000000	     38.06194955	     -5.60704834	      1.58313519	     38.67583673	      0.67502069	     -8.78029307	     -7.22357726	      0.00000000	      0.00000000	    -70.86555913	      5.77933979	      3.92436357	     79.72113815	    -15.94248522	     21.99267707	     69.99074279	     49.50769427	      0.00000000	      0.00000000	     81.57802464	    -15.19355741	     27.24643468	     69.34832408	     45.92453855	      0.00000000	      0.00000000
      5.05000000	    -12.24657113	     -3.86213508	      3.60236265	      0.15389149	      1.09969541	     -0.25551675	      0.00000000	      0.50000000	      0.00000000	      0.25000000	     91.52505890	     -3.60142494	      1.93245030	    116.98187938	      2.04171896	     -6.11056164	    -18.55890530	      0.00000000	      0.00000000	     38.04243079	     -5.77622200	      1.37804822	     39.87827816	      0.69600725	     -8.88282841	     -7.69415270	      0.00000000	      0.00000000	    -71.07918258	      5.83322418	      4.15440897	     80.06419568	    -15.78412142	     22.01025700	     70.07744625	     49.52660050	      0.00000000	      0.00000000	     81.60477142	    -15.40988564	     27.12643369	     69.32778514	     45.92121058	      0.00000000	      0.00000000
      5.05500000	    -12.28662190	     -4.00665992	      3.20671992	      0.15375181	      1.10082278	     -0.25598928	      0.00000000	      0.50000000	      0.00000000	      0.25000000	     91.53669099	     -3.37882608	      1.85706208	    115.92244763	      2.02322839	     -4.95436811	    -17.90667627	      0.00000000	      0.00000000	     38.23622251	     -6.09334439	      1.31889351	     41.31173772	      0.72102584	     -8.98214480	     -8.30876859	      0.00000000	      0.00000000	    -71.27722380	      5.91490933	      4.52220793	     80.46359387	    -15.54107125	     22.14922457	     70.12722800	     49.55265378	      0.00000000	      0.00000000	     81.56038418	    -15.71759286	     26.94256036	     69.35242022	     45.92436163	      0.00000000	      0.00000000
